PathFileType	4	(x/y/z)	S06_P20_T30
DataRate	CameraRate	NumFrames	NumMarkers	Units	OrigDataRate	OrigDataStartFrame	OrigNumFrames
240	240	10	51	mm	240	174	347
Frame#	Time	Sternum			R.Acromium			L.Acromium			Top.Head			R.ASIS			L.ASIS			R.PSIS			L.PSIS			R.Great.Tro			L.Great.Tro			R.Iliac.Crest			L.Iliac.Crest			V.Sacral			R.Thigh.Upper.Post			R.Thigh.Lower.Ant			R.Thigh.Lower.Post			R.Thigh.Upper.Ant			R.Knee.Lat			R.Knee.Med			R.Shank.Upper.Post			R.Shank.Lower.Ant			R.Shank.Lower.Post			R.Shank.Upper.Ant			R.Ankle.Lat			R.Ankle.Med			R.Heel.Upper			R.Heel.Med			R.Heel.Lat			R.Toe.Lat			R.Toe.Med			R.Toe.Tip			L.Thigh.Upper.Post			L.Thigh.Lower.Ant			L.Thigh.Lower.Post			L.Thigh.Upper.Ant			L.Knee.Lat			L.Knee.Med			L.Shank.Upper.Post			L.Shank.Lower.Ant			L.Shank.Lower.Post			L.Shank.Upper.Ant			L.Ankle.Lat			L.Ankle.Med			L.Heel.Upper			L.Heel.Med			L.Heel.Lat			L.Toe.Lat			L.Toe.Med			L.Toe.Tip			Cervical.Spine			Back			
		X1	Y1	Z1	X2	Y2	Z2	X3	Y3	Z3	X4	Y4	Z4	X5	Y5	Z5	X6	Y6	Z6	X7	Y7	Z7	X8	Y8	Z8	X9	Y9	Z9	X10	Y10	Z10	X11	Y11	Z11	X12	Y12	Z12	X13	Y13	Z13	X14	Y14	Z14	X15	Y15	Z15	X16	Y16	Z16	X17	Y17	Z17	X18	Y18	Z18	X19	Y19	Z19	X20	Y20	Z20	X21	Y21	Z21	X22	Y22	Z22	X23	Y23	Z23	X24	Y24	Z24	X25	Y25	Z25	X26	Y26	Z26	X27	Y27	Z27	X28	Y28	Z28	X29	Y29	Z29	X30	Y30	Z30	X31	Y31	Z31	X32	Y32	Z32	X33	Y33	Z33	X34	Y34	Z34	X35	Y35	Z35	X36	Y36	Z36	X37	Y37	Z37	X38	Y38	Z38	X39	Y39	Z39	X40	Y40	Z40	X41	Y41	Z41	X42	Y42	Z42	X43	Y43	Z43	X44	Y44	Z44	X45	Y45	Z45	X46	Y46	Z46	X47	Y47	Z47	X48	Y48	Z48	X49	Y49	Z49	X50	Y50	Z50	X51	Y51	Z51	

174	0.72083	-321.15	1285.3	297.88	-423.45	1498.6	471.59	-445.51	1501.8	120.14	-392.21	1815.8	294.67	-386.58	1056.3	431.77	-387.27	1049.2	178.4	NaN	NaN	NaN	-585.48	1086.7	257.21	-445.86	990.25	480.38	-475.78	984.13	122.49	-465.77	1135.6	460.83	-453.01	1126	141.36	-600.76	1053.2	302.52	-425.14	735.01	463.31	-366.63	658.81	423.94	-433.76	648.66	441.01	-356.23	747.57	443.4	-405.78	538.39	420.34	-406.54	547.97	293.81	-479.29	318.06	413.86	-429.98	247.17	386.78	-496.25	243.86	396.06	-415.39	320.6	403.19	-486.61	111.04	366.03	-474.28	114.18	277.5	-558.11	75.35	319.56	-552.87	43.113	289.28	-549.88	44.582	354.7	-371.84	37.4	391.22	-349.31	41.413	268.96	-281.61	52.064	312.85	-311.47	759.79	131.65	-238.96	702.39	192.11	-292.81	670.83	143.13	-265.43	793.4	176.92	-289.89	578.33	157.9	-261.2	581.6	278.8	-427.06	403.05	164.52	-399.79	318.81	162.19	-465.32	341.83	178.7	-365.68	380.48	153.38	-492.91	199.41	172.63	-482.8	192.18	263.41	-577.46	190.05	220.22	-584.69	159.85	248.31	-582.22	169.27	187.26	-422.47	97.491	139.97	-404.18	78.805	255.47	-332.13	72.453	202.97	-488.95	1554.4	299.75	-561.98	1287.5	302.08
175	0.725	-315.66	1285.6	297.73	-417.62	1498.9	471.55	-440.15	1502	120.15	-386.7	1816	294.5	-381.02	1056.4	431.61	-382.05	1049.6	178.27	NaN	NaN	NaN	-580.14	1086.9	257.4	-440.24	990.39	480.38	-470.45	984.58	122.47	-460	1135.8	460.82	-447.87	1126.4	141.4	-595.28	1053.4	302.72	-421.19	735	463.2	-363.25	658.46	423.66	-430.37	648.68	441	-352.28	747.12	443.06	-403.39	538.16	420.13	-404.25	547.77	293.56	-477.91	318.09	413.73	-429	247.02	386.49	-495.22	243.97	395.9	-414.02	320.39	402.97	-486.33	111.18	365.85	-474.17	114.21	277.33	-557.98	75.504	319.44	-552.81	43.227	289.19	-549.79	44.79	354.63	-371.78	37.404	391.15	-349.29	41.222	268.85	-281.49	51.777	312.84	-305.29	760.9	131.91	-232.44	703.75	192.24	-286.37	671.98	143.47	-259.17	794.67	176.99	-282.92	579.38	158.06	-254.14	582.98	278.71	-416.05	400.62	165.06	-386.7	317.15	162.09	-452.61	338.43	179.25	-354.24	379.67	153.28	-476.56	195.23	172.78	-465.55	187.99	263.5	-560.54	183.41	220.97	-566.67	152.92	249.03	-564.85	162.53	188	-403.52	95.332	139.32	-383.79	76.886	254.63	-312.07	72.623	201.56	-483.34	1554.6	299.8	-556.47	1287.8	302.37
176	0.72917	-310.17	1285.9	297.57	-411.79	1499.2	471.51	-434.81	1502.2	120.15	-381.19	1816.2	294.32	-375.43	1056.4	431.44	-376.8	1050	178.11	NaN	NaN	NaN	-574.79	1087.1	257.61	-434.58	990.5	480.37	-465.13	984.97	122.46	-454.2	1136.1	460.8	-442.72	1126.7	141.43	-589.79	1053.6	302.94	-417.26	734.97	463.08	-359.89	658.11	423.38	-427	648.71	440.98	-348.34	746.66	442.72	-401.03	537.93	419.93	-402	547.57	293.3	-476.55	318.11	413.6	-428.06	246.89	386.2	-494.19	244.08	395.75	-412.67	320.18	402.75	-486.05	111.32	365.67	-474.07	114.25	277.17	-557.86	75.656	319.33	-552.72	43.34	289.12	-549.71	44.993	354.57	-371.73	37.405	391.07	-349.29	41.048	268.75	-281.37	51.517	312.85	-299.26	761.87	132.17	-226.1	704.92	192.33	-280.16	672.98	143.8	-253.01	795.76	177.01	-276.18	580.29	158.21	-247.31	584.22	278.6	-405.06	398.06	165.56	-373.59	315.45	161.98	-439.86	334.94	179.77	-342.84	378.79	153.16	-460.03	191.03	172.94	-448.15	183.85	263.6	-543.39	176.77	221.7	-548.39	146.03	249.75	-547.22	155.77	188.73	-384.42	93.215	138.75	-363.28	75.141	253.87	-291.93	72.941	200.25	-477.74	1554.9	299.84	-550.95	1288	302.67
177	0.73333	-304.66	1286.1	297.4	-405.94	1499.4	471.47	-429.47	1502.4	120.16	-375.68	1816.4	294.15	-369.82	1056.4	431.24	-371.54	1050.3	177.93	NaN	NaN	NaN	-569.42	1087.3	257.83	-428.9	990.59	480.35	-459.8	985.33	122.46	-448.36	1136.3	460.78	-437.56	1127	141.46	-584.28	1053.8	303.17	-413.34	734.94	462.97	-356.55	657.76	423.1	-423.65	648.72	440.94	-344.4	746.19	442.37	-398.71	537.7	419.72	-399.81	547.38	293.03	-475.21	318.14	413.47	-427.15	246.76	385.91	-493.18	244.19	395.6	-411.35	319.98	402.53	-485.79	111.47	365.5	-473.95	114.29	277.01	-557.76	75.808	319.2	-552.61	43.452	289.06	-549.63	45.193	354.5	-371.68	37.404	390.99	-349.3	40.888	268.65	-281.26	51.278	312.86	-293.38	762.69	132.4	-219.93	705.9	192.37	-274.17	673.83	144.12	-246.95	796.67	176.98	-269.67	581.06	158.33	-240.68	585.31	278.46	-394.08	395.39	166.03	-360.47	313.72	161.87	-427.06	331.36	180.26	-331.49	377.85	153.04	-443.34	186.82	173.1	-430.6	179.78	263.7	-526.02	170.14	222.41	-529.88	139.21	250.46	-529.35	149.01	189.46	-365.18	91.161	138.26	-342.66	73.596	253.2	-271.74	73.432	199.07	-472.13	1555.1	299.89	-545.42	1288.3	302.97
178	0.7375	-299.14	1286.3	297.21	-400.08	1499.6	471.43	-424.14	1502.5	120.16	-370.16	1816.6	293.97	-364.19	1056.4	431.02	-366.26	1050.5	177.73	NaN	NaN	NaN	-564.04	1087.5	258.06	-423.2	990.64	480.32	-454.48	985.65	122.45	-442.5	1136.4	460.75	-432.38	1127.2	141.48	-578.75	1053.9	303.41	-409.44	734.89	462.84	-353.23	657.4	422.83	-420.32	648.73	440.9	-340.48	745.71	442.01	-396.4	537.47	419.51	-397.67	547.2	292.75	-473.88	318.18	413.33	-426.27	246.64	385.62	-492.18	244.31	395.46	-410.05	319.79	402.32	-485.53	111.62	365.33	-473.83	114.33	276.85	-557.66	75.96	319.08	-552.48	43.563	289.01	-549.55	45.391	354.43	-371.63	37.4	390.91	-349.33	40.738	268.56	-281.15	51.059	312.87	-287.66	763.37	132.62	-213.93	706.68	192.35	-268.4	674.52	144.43	-241.01	797.4	176.9	-263.38	581.68	158.43	-234.28	586.26	278.3	-383.12	392.63	166.45	-347.34	311.98	161.76	-414.23	327.73	180.72	-320.18	376.87	152.91	-426.49	182.64	173.26	-412.94	175.83	263.8	-508.45	163.56	223.08	-511.15	132.49	251.17	-511.24	142.27	190.16	-345.81	89.195	137.85	-321.99	72.278	252.64	-251.53	74.117	198.02	-466.52	1555.3	299.94	-539.89	1288.5	303.27
179	0.74167	-293.6	1286.5	297.01	-394.2	1499.8	471.38	-418.81	1502.6	120.16	-364.65	1816.7	293.8	-358.54	1056.4	430.79	-360.95	1050.8	177.52	NaN	NaN	NaN	-558.63	1087.6	258.29	-417.49	990.66	480.29	-449.16	985.93	122.45	-436.61	1136.6	460.72	-427.18	1127.4	141.49	-573.2	1054.1	303.66	-405.55	734.82	462.71	-349.92	657.03	422.56	-417.01	648.72	440.84	-336.57	745.22	441.65	-394.11	537.24	419.29	-395.56	547.03	292.47	-472.57	318.22	413.2	-425.41	246.52	385.33	-491.19	244.43	395.33	-408.77	319.6	402.1	-485.28	111.77	365.16	-473.69	114.38	276.69	-557.58	76.113	318.95	-552.33	43.672	288.98	-549.47	45.589	354.36	-371.58	37.393	390.82	-349.35	40.595	268.48	-281.04	50.855	312.89	-282.09	763.9	132.82	-208.11	707.26	192.29	-262.86	675.05	144.72	-235.19	797.94	176.78	-257.31	582.15	158.51	-228.08	587.05	278.12	-372.18	389.79	166.82	-334.21	310.23	161.66	-401.36	324.06	181.13	-308.93	375.84	152.78	-409.51	178.49	173.42	-395.18	172	263.9	-490.68	157.04	223.7	-492.22	125.9	251.85	-492.9	135.59	190.84	-326.33	87.337	137.54	-301.28	71.213	252.18	-231.3	75.02	197.11	-460.91	1555.4	299.98	-534.34	1288.7	303.57
180	0.74583	-288.05	1286.6	296.8	-388.32	1499.9	471.33	-413.5	1502.7	120.16	-359.13	1816.9	293.64	-352.87	1056.3	430.55	-355.62	1050.9	177.29	NaN	NaN	NaN	-553.21	1087.7	258.54	-411.76	990.64	480.24	-443.84	986.17	122.44	-430.69	1136.6	460.69	-421.95	1127.6	141.5	-567.64	1054.2	303.91	-401.67	734.74	462.57	-346.62	656.66	422.3	-413.71	648.71	440.77	-332.67	744.72	441.29	-391.84	537.01	419.07	-393.48	546.86	292.17	-471.26	318.26	413.06	-424.57	246.41	385.04	-490.21	244.56	395.19	-407.5	319.42	401.88	-485.04	111.93	365	-473.52	114.43	276.53	-557.5	76.267	318.82	-552.17	43.779	288.94	-549.4	45.787	354.28	-371.54	37.384	390.72	-349.37	40.457	268.4	-280.94	50.664	312.91	-276.67	764.28	132.99	-202.48	707.63	192.19	-257.53	675.42	145	-229.49	798.29	176.61	-251.46	582.48	158.58	-222.11	587.68	277.93	-361.26	386.88	167.15	-321.09	308.49	161.55	-388.48	320.37	181.49	-297.74	374.78	152.64	-392.4	174.41	173.57	-377.36	168.33	264	-472.73	150.62	224.28	-473.09	119.46	252.51	-474.36	128.99	191.49	-306.74	85.613	137.31	-280.56	70.425	251.83	-211.11	76.16	196.34	-455.3	1555.5	300.03	-528.78	1288.9	303.87
181	0.75	-282.48	1286.7	296.58	-382.44	1500.1	471.28	-408.18	1502.8	120.15	-353.61	1816.9	293.47	-347.19	1056.1	430.29	-350.26	1051.1	177.04	NaN	NaN	NaN	-547.75	1087.8	258.79	-406.03	990.59	480.19	-438.52	986.38	122.44	-424.76	1136.7	460.65	-416.7	1127.7	141.51	-562.05	1054.2	304.17	-397.8	734.64	462.42	-343.33	656.29	422.04	-410.41	648.68	440.68	-328.78	744.2	440.92	-389.58	536.77	418.85	-391.43	546.69	291.87	-469.97	318.31	412.91	-423.73	246.31	384.75	-489.24	244.7	395.05	-406.25	319.24	401.66	-484.79	112.1	364.84	-473.34	114.5	276.35	-557.43	76.423	318.68	-551.99	43.886	288.92	-549.33	45.988	354.2	-371.5	37.372	390.62	-349.37	40.322	268.34	-280.84	50.483	312.94	-271.41	764.5	133.14	-197.03	707.8	192.04	-252.42	675.63	145.24	-223.92	798.45	176.41	-245.82	582.65	158.63	-216.34	588.15	277.74	-350.37	383.92	167.42	-307.99	306.79	161.45	-375.57	316.68	181.82	-286.62	373.71	152.49	-375.2	170.41	173.72	-359.51	164.84	264.1	-454.63	144.33	224.81	-453.81	113.21	253.15	-455.64	122.49	192.1	-287.08	84.042	137.18	-259.87	69.935	251.58	-190.96	77.557	195.72	-449.69	1555.6	300.08	-523.2	1289	304.16
182	0.75417	-276.9	1286.8	296.35	-376.54	1500.1	471.23	-402.86	1502.8	120.14	-348.09	1817	293.31	-341.49	1055.9	430.03	-344.86	1051.2	176.79	NaN	NaN	NaN	-542.27	1087.9	259.03	-400.29	990.5	480.13	-433.19	986.55	122.45	-418.79	1136.7	460.61	-411.43	1127.8	141.51	-556.45	1054.3	304.42	-393.94	734.53	462.26	-340.03	655.91	421.79	-407.13	648.64	440.58	-324.9	743.67	440.56	-387.31	536.53	418.62	-389.38	546.53	291.56	-468.69	318.36	412.76	-422.9	246.21	384.47	-488.27	244.85	394.9	-405	319.06	401.43	-484.56	112.27	364.67	-473.14	114.57	276.17	-557.37	76.582	318.53	-551.8	43.993	288.89	-549.25	46.191	354.12	-371.46	37.359	390.52	-349.37	40.19	268.28	-280.75	50.312	312.96	-266.29	764.57	133.25	-191.77	707.77	191.86	-247.51	675.67	145.46	-218.48	798.43	176.16	-240.38	582.67	158.67	-210.78	588.47	277.56	-339.51	380.93	167.64	-294.93	305.12	161.36	-362.67	313.01	182.09	-275.57	372.62	152.35	-357.91	166.53	173.85	-341.64	161.54	264.19	-436.4	138.18	225.28	-434.4	107.16	253.75	-436.75	116.13	192.68	-267.37	82.646	137.13	-239.25	69.761	251.45	-170.9	79.228	195.25	-444.08	1555.7	300.13	-517.62	1289.1	304.45
183	0.75833	-271.3	1286.8	296.12	-370.64	1500.2	471.16	-397.55	1502.8	120.13	-342.57	1817	293.15	-335.77	1055.7	429.76	-339.43	1051.3	176.54	NaN	NaN	NaN	-536.77	1087.9	259.28	-394.56	990.38	480.06	-427.86	986.69	122.45	-412.81	1136.7	460.56	-406.12	1127.9	141.51	-550.82	1054.3	304.68	-390.08	734.41	462.09	-336.73	655.52	421.55	-403.84	648.6	440.46	-321.03	743.12	440.19	-385.05	536.3	418.38	-387.33	546.37	291.25	-467.41	318.42	412.6	-422.06	246.12	384.19	-487.31	245	394.75	-403.76	318.89	401.21	-484.32	112.44	364.51	-472.92	114.64	275.98	-557.3	76.746	318.38	-551.61	44.101	288.87	-549.18	46.399	354.02	-371.43	37.347	390.41	-349.35	40.058	268.23	-280.66	50.148	312.98	-261.32	764.48	133.34	-186.7	707.54	191.65	-242.8	675.54	145.65	-213.17	798.23	175.88	-235.13	582.54	158.71	-205.42	588.63	277.39	-328.69	377.91	167.81	-281.92	303.5	161.27	-349.78	309.36	182.32	-264.6	371.53	152.21	-340.57	162.78	173.97	-323.79	158.47	264.28	-418.06	132.21	225.7	-414.88	101.34	254.34	-417.74	109.93	193.23	-247.64	81.445	137.17	-218.73	69.918	251.41	-150.96	81.186	194.91	-438.47	1555.7	300.17	-512.03	1289.1	304.73
